<svg width="24" height="24" viewBox="0 0 24 24" fill="none" xmlns="http://www.w3.org/2000/svg">
<path d="M12 18H4C3.46957 18 2.96086 17.7893 2.58579 17.4142C2.21071 17.0391 2 16.5304 2 16V8C2 7.46957 2.21071 6.96086 2.58579 6.58579C2.96086 6.21071 3.46957 6 4 6H20C20.5304 6 21.0391 6.21071 21.4142 6.58579C21.7893 6.96086 22 7.46957 22 8V13" stroke="#1A2B4A" stroke-width="2" stroke-linecap="round" stroke-linejoin="round"/>
<path d="M16 19L19 22L22 19" stroke="#1A2B4A" stroke-width="2" stroke-linecap="round" stroke-linejoin="round"/>
<path d="M19 16V22" stroke="#1A2B4A" stroke-width="2" stroke-linecap="round" stroke-linejoin="round"/>
<path d="M15 9.5L10 14.5" stroke="#1A2B4A" stroke-width="2" stroke-linecap="round" stroke-linejoin="round"/>
<path d="M10 9.5H10.01" stroke="#1A2B4A" stroke-width="2" stroke-linecap="round" stroke-linejoin="round"/>
<path d="M15 14.5H15.01" stroke="#1A2B4A" stroke-width="2" stroke-linecap="round" stroke-linejoin="round"/>
</svg>
